<?xml version="1.0" standalone="no"?><!DOCTYPE svg PUBLIC "-//W3C//DTD SVG 1.1//EN" "http://www.w3.org/Graphics/SVG/1.1/DTD/svg11.dtd"><svg t="1703837305388" class="icon" viewBox="0 0 1024 1024" version="1.1" xmlns="http://www.w3.org/2000/svg" p-id="9690" xmlns:xlink="http://www.w3.org/1999/xlink" width="200" height="200"><path d="M640 512h64v288h-64zM320 224h32V96h320v128h32c19.2 0 32-12.8 32-32V64c0-19.2-12.8-32-32-32H320c-19.2 0-32 12.8-32 32v128c0 19.2 12.8 32 32 32z" p-id="9691"></path><path d="M0 288v64h160v640c0 19.2 12.8 32 32 32h640c19.2 0 32-12.8 32-32V352h160V288H0z m800 672H224V352h576v608z" p-id="9692"></path><path d="M480 512h64v288h-64zM320 512h64v288h-64z" p-id="9693"></path></svg>